<?xml version="1.0"?>
<svg xmlns="http://www.w3.org/2000/svg" viewBox="0 0 50 50">
<path style="line-height:normal;text-indent:0;text-align:start;text-decoration-line:none;text-decoration-style:solid;text-decoration-color:#000;text-transform:none;block-progression:tb;isolation:auto;mix-blend-mode:normal" d="M 18 2 C 13.054545 2 9 6.0545455 9 11 C 9 14.89363 11.517407 18.225504 15 19.470703 L 15 32 C 15 32.351946 15.07397 32.685079 15.1875 33 L 12.46875 33 C 13.418224 31.93931 14 30.542045 14 29 C 14 25.67619 11.32381 23 8 23 C 4.6761905 23 2 25.67619 2 29 C 2 30.812228 2.8001806 32.426992 4.0625 33.525391 C 2.8408278 34.212629 2 35.507835 2 37 L 2 39 A 1.0001 1.0001 0 0 0 3 40 L 37 40 A 1.0001 1.0001 0 0 0 38 39 L 38 37 C 38 36.269312 37.786352 35.59163 37.439453 35 L 41 35 L 41 44.5 C 41 46.42381 42.57619 48 44.5 48 C 46.42381 48 48 46.42381 48 44.5 L 48 33 C 48 30.254545 45.745455 28 43 28 L 37 28 C 32.372109 28 28.51746 26 24 26 L 21 26 L 21 19.470703 C 24.482593 18.225504 27 14.89363 27 11 C 27 6.0545455 22.945455 2 18 2 z M 18 4 C 21.854545 4 25 7.1454545 25 11 C 25 14.854545 21.854545 18 18 18 C 14.145455 18 11 14.854545 11 11 C 11 7.1454545 14.145455 4 18 4 z M 18 8 C 16.35499 8 15 9.3549904 15 11 C 15 12.64501 16.35499 14 18 14 C 19.64501 14 21 12.64501 21 11 C 21 9.3549904 19.64501 8 18 8 z M 18 10 C 18.564129 10 19 10.435871 19 11 C 19 11.564129 18.564129 12 18 12 C 17.435871 12 17 11.564129 17 11 C 17 10.435871 17.435871 10 18 10 z M 17 19.939453 C 17.328929 19.976382 17.661722 20 18 20 C 18.338278 20 18.671071 19.976382 19 19.939453 L 19 27 A 1.0001 1.0001 0 0 0 20 28 L 24 28 C 27.88254 28 31.827891 30 37 30 L 43 30 C 44.654545 30 46 31.345455 46 33 L 46 44.5 C 46 45.37619 45.37619 46 44.5 46 C 43.62381 46 43 45.37619 43 44.5 L 43 34 A 1.0001 1.0001 0 0 0 42 33 L 34 33 L 18 33 C 17.445455 33 17 32.554545 17 32 L 17 19.939453 z M 8 25 C 10.27619 25 12 26.72381 12 29 C 12 31.27619 10.27619 33 8 33 C 5.7238095 33 4 31.27619 4 29 C 4 26.72381 5.7238095 25 8 25 z M 6 35 L 18 35 L 34 35 C 35.116666 35 36 35.883334 36 37 L 36 38 L 4 38 L 4 37 C 4 35.883334 4.8833339 35 6 35 z" font-weight="400" font-family="sans-serif" white-space="normal" overflow="visible"/>
</svg>
