<?xml version="1.0"?>
<svg xmlns="http://www.w3.org/2000/svg" viewBox="0 0 50 50" enable-background="new 0 0 50 50">
<path style="text-indent:0;text-align:start;line-height:normal;text-transform:none;block-progression:tb;-inkscape-font-specification:Bitstream Vera Sans" d="M 33 0 C 31.906937 0 31 0.9069372 31 2 L 31 5 C 31 5.9461825 31.670884 6.7690296 32.5625 6.96875 C 32.026638 7.8296881 31.507366 8.9040515 31 10.125 C 29.88786 12.801304 28.862093 16.078103 28.34375 18.75 A 1.002073 1.002073 0 0 0 30.3125 19.125 C 30.796157 16.631897 31.79139 13.407446 32.84375 10.875 C 33.36993 9.6087772 33.903678 8.5277509 34.375 7.8125 C 34.610661 7.4548745 34.829924 7.1856457 34.96875 7.0625 C 35.022145 7.0151363 35.017914 7.0054225 35.03125 7 L 42.84375 7 C 42.871099 7.0164097 42.953021 7.065639 43.0625 7.1875 C 43.281458 7.4312217 43.566777 7.8835119 43.875 8.4375 C 44.491447 9.5454761 45.163415 11.105731 45.78125 12.8125 C 47.01692 16.226039 48 20.267985 48 21.8125 L 48 44 C 48 45.668484 46.668484 47 45 47 L 33 47 C 32.247066 47 31.558777 46.735029 31.03125 46.28125 A 1.0001 1.0001 0 1 0 29.75 47.78125 C 30.624473 48.533471 31.758934 49 33 49 L 45 49 C 47.749516 49 50 46.749516 50 44 L 50 21.8125 C 50 19.559015 48.94058 15.704211 47.65625 12.15625 C 47.014085 10.382269 46.328928 8.7027114 45.625 7.4375 C 45.531023 7.268589 45.43885 7.1233131 45.34375 6.96875 C 46.27861 6.8042536 47 5.9773267 47 5 L 47 2 C 47 0.9069372 46.093063 0 45 0 L 33 0 z M 33 2 L 45 2 L 45 5 L 33 5 L 33 2 z M 19.21875 14.96875 C 18.682625 14.955125 18.21875 15.03125 18.21875 15.03125 C 18.21875 15.03125 16.80825 17.33 16.65625 20 C 14.10025 16.108 10.8855 19.465 9.6875 16.375 C 9.6875 21.305 13.59325 20.377 15.03125 21 C 10.64425 21 12.1915 24.773 8.6875 24.875 C 11.8045 26.255 14.59625 25.97375 16.65625 21.96875 C 15.70225 24.75375 15.01325 27.00575 18.90625 29.34375 C 19.93225 27.50775 19.43625 24.17 18.40625 21.5 C 20.27525 24.59 22.855 26.7125 26.25 24.5625 C 23.529 23.8525 24.7445 21.85675 19.9375 21.09375 C 23.0275 21.51375 25.138 21.9535 26 18.6875 C 23.512 19.6315 22.5195 15.891 18.4375 20.125 C 18.4235 20.134 18.46075 17.4465 20.71875 15.4375 C 20.37425 15.101 19.754875 14.982375 19.21875 14.96875 z M 8.375 20.5625 A 1.0001 1.0001 0 0 0 8.125 20.65625 C 2.3143795 22.823542 0 28.106912 0 33.84375 C 0 42.368376 7.614902 50 17 50 C 21.137934 50 25.365132 48.598631 28.59375 45.65625 C 31.822368 42.713869 34 38.22108 34 32.25 C 34 29.940497 33.606921 27.602815 32.5625 25.59375 C 31.518079 23.584685 29.785279 21.919432 27.28125 21.0625 A 1.0080244 1.0080244 0 1 0 26.625 22.96875 C 28.658971 23.664818 29.937171 24.907565 30.78125 26.53125 C 31.625329 28.154935 32 30.169503 32 32.25 C 32 37.74592 30.064382 41.622631 27.25 44.1875 C 24.435618 46.752369 20.688066 48 17 48 C 8.705098 48 2 41.163124 2 33.84375 C 2 28.610588 3.8131205 24.364708 8.8125 22.5 A 1.0001 1.0001 0 0 0 8.375 20.5625 z" overflow="visible" enable-background="accumulate" font-family="Bitstream Vera Sans"/>
</svg>
