<?xml version="1.0"?>
<svg xmlns="http://www.w3.org/2000/svg" viewBox="0 0 50 50">
<path style="line-height:normal;text-indent:0;text-align:start;text-decoration-line:none;text-decoration-style:solid;text-decoration-color:#000;text-transform:none;block-progression:tb;isolation:auto;mix-blend-mode:normal" d="M 13 0 C 5.8324839 0 0 5.8324839 0 13 L 0 37 C 0 44.167516 5.8324839 50 13 50 L 37 50 C 44.167516 50 50 44.167516 50 37 L 50 13 C 50 5.8324839 44.167516 0 37 0 L 13 0 z M 13 2 L 37 2 C 43.086484 2 48 6.9135161 48 13 L 48 37 C 48 43.086484 43.086484 48 37 48 L 13 48 C 12.23919 48 11.496146 47.923585 10.779297 47.777344 C 10.420872 47.704223 10.069304 47.612801 9.7246094 47.505859 C 5.2435765 46.115619 2 41.945268 2 37 L 2 13 C 2 12.619595 2.019167 12.243375 2.0566406 11.873047 C 2.5437977 7.0587801 6.1197752 3.1732268 10.779297 2.2226562 C 11.137722 2.1495354 11.502719 2.0941142 11.873047 2.0566406 C 12.243375 2.019167 12.619595 2 13 2 z M 9.3457031 18.681641 L 9.3457031 31.533203 L 10.876953 31.533203 L 10.876953 28.005859 L 12.314453 26.673828 L 15.501953 31.533203 L 17.445312 31.533203 L 13.484375 25.611328 L 17.175781 22.228516 L 15.121094 22.228516 L 10.875 26.296875 L 10.875 18.681641 L 9.3457031 18.681641 z M 38.738281 18.681641 L 38.738281 31.533203 L 40.269531 31.533203 L 40.269531 18.681641 L 38.738281 18.681641 z M 22.482422 22.011719 C 21.749422 22.011719 21.108641 22.140438 20.556641 22.398438 C 20.003641 22.656438 19.544687 23.010938 19.179688 23.460938 C 18.813688 23.910937 18.541328 24.438922 18.361328 25.044922 C 18.181328 25.650922 18.091797 26.302047 18.091797 26.998047 C 18.091797 27.694047 18.183141 28.332062 18.369141 28.914062 C 18.555141 29.497062 18.831266 29.997969 19.197266 30.417969 C 19.563266 30.837969 20.018453 31.162625 20.564453 31.390625 C 21.110453 31.618625 21.737313 31.732422 22.445312 31.732422 C 23.633313 31.732422 24.573672 31.420875 25.263672 30.796875 C 25.952672 30.172875 26.381781 29.284813 26.550781 28.132812 L 24.984375 28.132812 C 24.889375 28.852813 24.626172 29.410641 24.201172 29.806641 C 23.776172 30.202641 23.185688 30.400391 22.429688 30.400391 C 21.949688 30.400391 21.5355 30.303328 21.1875 30.111328 C 20.8385 29.919328 20.557797 29.665656 20.341797 29.347656 C 20.124797 29.029656 19.965281 28.665813 19.863281 28.257812 C 19.762281 27.850813 19.710938 27.430047 19.710938 26.998047 C 19.710937 26.530047 19.758469 26.076672 19.855469 25.638672 C 19.951469 25.200672 20.110031 24.814516 20.332031 24.478516 C 20.555031 24.143516 20.852609 23.872969 21.224609 23.667969 C 21.595609 23.463969 22.057375 23.361328 22.609375 23.361328 C 23.258375 23.361328 23.774203 23.523656 24.158203 23.847656 C 24.542203 24.171656 24.793109 24.628797 24.912109 25.216797 L 26.496094 25.216797 C 26.436094 24.664797 26.292453 24.187156 26.064453 23.785156 C 25.836453 23.383156 25.545406 23.049156 25.191406 22.785156 C 24.836406 22.521156 24.42975 22.327172 23.96875 22.201172 C 23.50575 22.075172 23.010422 22.011719 22.482422 22.011719 z M 32.419922 22.011719 C 31.891922 22.011719 31.396547 22.065828 30.935547 22.173828 C 30.474547 22.281828 30.062125 22.459078 29.703125 22.705078 C 29.343125 22.951078 29.054844 23.271969 28.839844 23.667969 C 28.624844 24.063969 28.502516 24.550953 28.478516 25.126953 L 30.009766 25.126953 C 30.045766 24.442953 30.277938 23.976469 30.710938 23.730469 C 31.142938 23.484469 31.682078 23.361328 32.330078 23.361328 C 32.570078 23.361328 32.814547 23.380016 33.060547 23.416016 C 33.306547 23.452016 33.528562 23.524812 33.726562 23.632812 C 33.924563 23.740813 34.086891 23.895609 34.212891 24.099609 C 34.338891 24.303609 34.400391 24.574156 34.400391 24.910156 C 34.400391 25.198156 34.316437 25.416406 34.148438 25.566406 C 33.980438 25.716406 33.752844 25.830203 33.464844 25.908203 C 33.176844 25.986203 32.844797 26.047844 32.466797 26.089844 C 32.088797 26.131844 31.689531 26.193344 31.269531 26.277344 C 30.874531 26.349344 30.485422 26.440828 30.107422 26.548828 C 29.729422 26.656828 29.393609 26.815391 29.099609 27.025391 C 28.805609 27.235391 28.568672 27.50775 28.388672 27.84375 C 28.208672 28.17975 28.119141 28.612625 28.119141 29.140625 C 28.119141 29.608625 28.199328 30.007891 28.361328 30.337891 C 28.523328 30.667891 28.741578 30.934672 29.017578 31.138672 C 29.293578 31.342672 29.620047 31.491891 29.998047 31.587891 C 30.376047 31.683891 30.775312 31.732422 31.195312 31.732422 C 31.844313 31.732422 32.446859 31.620438 33.005859 31.398438 C 33.563859 31.176438 34.052656 30.814547 34.472656 30.310547 C 34.472656 30.814547 34.589266 31.176437 34.822266 31.398438 C 35.056266 31.620437 35.371578 31.732422 35.767578 31.732422 C 36.235578 31.732422 36.602187 31.654047 36.867188 31.498047 L 36.867188 30.310547 C 36.686188 30.358547 36.530437 30.382812 36.398438 30.382812 C 36.158437 30.382813 36.016609 30.297859 35.974609 30.130859 C 35.933609 29.962859 35.912109 29.698844 35.912109 29.339844 L 35.912109 24.5625 C 35.912109 24.0235 35.809469 23.586953 35.605469 23.251953 C 35.400469 22.916953 35.132875 22.655703 34.796875 22.470703 C 34.460875 22.285703 34.085875 22.161562 33.671875 22.101562 C 33.257875 22.041563 32.839922 22.011719 32.419922 22.011719 z M 34.382812 26.728516 L 34.382812 28.287109 C 34.382812 28.501109 34.328703 28.731562 34.220703 28.976562 C 34.112703 29.221562 33.944797 29.44725 33.716797 29.65625 C 33.487797 29.86525 33.192984 30.040734 32.833984 30.177734 C 32.473984 30.314734 32.041109 30.382812 31.537109 30.382812 C 31.296109 30.382813 31.068516 30.358547 30.853516 30.310547 C 30.638516 30.262547 30.448109 30.186125 30.287109 30.078125 C 30.125109 29.970125 29.991625 29.83025 29.890625 29.65625 C 29.789625 29.48225 29.738281 29.272484 29.738281 29.021484 C 29.738281 28.639484 29.825 28.336234 30 28.115234 C 30.174 27.895234 30.399781 27.724469 30.675781 27.605469 C 30.951781 27.486469 31.263328 27.399703 31.611328 27.345703 C 31.959328 27.291703 32.304484 27.245125 32.646484 27.203125 C 32.987484 27.161125 33.314953 27.107969 33.626953 27.042969 C 33.938953 26.976969 34.190812 26.872516 34.382812 26.728516 z" font-weight="400" font-family="sans-serif" white-space="normal" overflow="visible"/>
</svg>
