<?xml version="1.0"?>
<svg xmlns="http://www.w3.org/2000/svg" width="50" height="50" viewBox="0 0 50 50">
<path style="text-indent:0;text-align:start;line-height:normal;text-transform:none;block-progression:tb;-inkscape-font-specification:Bitstream Vera Sans" d="M 25 8 C 21.698136 8 19 10.698136 19 14 C 19 16.093808 20.082867 17.957049 21.71875 19.03125 C 18.998012 19.497782 16.855022 20.339355 16.6875 20.40625 C 16.6808 20.40895 16.53125 20.4375 16.53125 20.4375 A 1.0001 1.0001 0 0 0 16.28125 20.59375 A 1.0001 1.0001 0 0 0 16.1875 20.65625 C 14.94192 21.070661 14.003093 21.944602 13.46875 23.125 A 1.0001 1.0001 0 0 0 13.125 23.5625 L 9.9375 31.875 C 9.6533399 32.124606 5.2755947 35.974931 4.25 36.8125 C 2.6567478 38.113656 2.6996823 40.465572 4.09375 41.71875 C 4.7654593 42.322574 5.6536471 42.583889 6.5 42.46875 C 7.3463529 42.353611 8.1266284 41.93282 8.875 41.34375 C 9.3456698 40.973223 10.61554 39.987013 11.8125 39.03125 C 13.00946 38.075487 14.061986 37.233667 14.5 36.8125 C 15.174165 36.164264 15.669741 35.449922 16 34.8125 C 16.04214 34.73139 16.447087 33.957136 16.625 33.625 L 16.625 36.875 C 16.625 36.84913 16.57323 37.015937 16.34375 37.28125 C 16.114269 37.546563 15.743292 37.88329 15.28125 38.21875 C 14.357166 38.88967 13.148531 39.570927 12.15625 40.1875 C 10.959818 40.93088 9.8295651 41.565558 8.9375 42.375 C 8.0454349 43.184442 7.375 44.287326 7.375 45.625 C 7.375 47.15972 8.2635969 48.38631 9.375 49.0625 C 10.486403 49.73869 11.818 50 13.0625 50 L 22.46875 50 L 22.53125 50 L 22.625 50 L 34.59375 50 C 35.396479 50 37.215173 49.998 38.9375 49.5625 C 39.798663 49.344769 40.666655 49.010087 41.375 48.4375 C 42.083345 47.864913 42.625 46.962223 42.625 45.90625 C 42.625 44.693547 42.074344 43.672342 41.34375 42.90625 C 40.613156 42.140158 39.71256 41.557873 38.78125 40.9375 C 37.003583 39.752388 35.544909 38.831114 34.59375 38.09375 C 34.118171 37.725068 33.781669 37.393123 33.59375 37.15625 C 33.405831 36.919377 33.375 36.830784 33.375 36.8125 L 33.375 33.65625 C 33.548396 33.980013 33.959128 34.733632 34 34.8125 C 34.330259 35.449922 34.825835 36.164264 35.5 36.8125 C 35.938014 37.233667 36.99054 38.075487 38.1875 39.03125 C 39.38446 39.987013 40.62308 40.973223 41.09375 41.34375 C 41.841885 41.932062 42.653873 42.353441 43.5 42.46875 C 44.346127 42.584059 45.234131 42.3223 45.90625 41.71875 C 47.3015 40.465842 47.344319 38.113386 45.75 36.8125 C 44.724561 35.975792 40.346645 32.124638 40.0625 31.875 L 36.875 23.5625 A 1.0001 1.0001 0 0 0 36.53125 23.125 C 35.938014 21.817258 34.840635 20.831813 33.40625 20.5 L 33.4375 20.4375 C 32.915716 20.236872 30.791826 19.468266 28.25 19.03125 C 29.898021 17.959214 31 16.103083 31 14 C 31 10.698136 28.301864 8 25 8 z M 25 10 C 27.220984 10 29 11.779016 29 14 C 29 16.220984 27.220984 18 25 18 C 22.779016 18 21 16.220984 21 14 C 21 11.779016 22.779016 10 25 10 z M 25 20.71875 C 28.294181 20.71875 32.086595 22.069435 32.71875 22.3125 A 1.0001 1.0001 0 0 0 32.875 22.375 C 33.857708 22.560937 34.647507 23.268217 34.9375 24.21875 A 1.0001 1.0001 0 0 0 35.03125 24.40625 L 35.0625 24.5 A 1.0001 1.0001 0 0 0 35.125 24.5625 L 38.28125 32.84375 A 1.0001 1.0001 0 0 0 38.5625 33.21875 C 38.5625 33.21875 43.245413 37.376817 44.46875 38.375 C 45.156431 38.936114 45.0805 39.812908 44.59375 40.25 C 44.324869 40.49145 44.103623 40.516941 43.75 40.46875 C 43.396377 40.42056 42.901615 40.219938 42.34375 39.78125 C 41.87442 39.411777 40.62754 38.418987 39.4375 37.46875 C 38.24746 36.518513 37.008986 35.503833 36.875 35.375 C 36.405165 34.923236 36.022991 34.341578 35.78125 33.875 C 35.547594 33.424125 34.116071 30.794632 33.25 29.1875 A 1.0001 1.0001 0 0 0 31.375 29.65625 L 31.375 36.8125 C 31.375 37.432716 31.676356 37.958904 32.03125 38.40625 C 32.386144 38.853596 32.832329 39.235557 33.375 39.65625 C 34.460341 40.497636 35.899917 41.422862 37.65625 42.59375 C 38.58794 43.214377 39.407094 43.757842 39.90625 44.28125 C 40.405406 44.804658 40.625 45.233953 40.625 45.90625 C 40.625 46.364777 40.483998 46.616056 40.125 46.90625 C 39.766002 47.196444 39.162462 47.449606 38.46875 47.625 C 37.081327 47.975787 35.372021 48 34.59375 48 L 22.6875 48 L 22.53125 48 L 22.46875 48 C 22.082196 48 20.849331 47.86923 19.90625 47.5 C 19.43471 47.315385 19.020742 47.051962 18.78125 46.8125 C 18.541758 46.573038 18.46875 46.398722 18.46875 46.09375 C 18.46875 45.777427 18.52533 45.608659 18.6875 45.40625 C 18.849667 45.203841 19.158357 44.987033 19.59375 44.78125 C 20.464536 44.369683 21.855459 44.058026 23.46875 43.78125 C 27.600729 43.072454 30.53125 42.59375 30.53125 42.59375 A 1.0001 1.0001 0 1 0 30.21875 40.625 C 30.21875 40.625 27.271021 41.101296 23.125 41.8125 C 21.468291 42.096724 19.949464 42.387067 18.71875 42.96875 C 18.103393 43.259592 17.546521 43.630128 17.125 44.15625 C 16.703479 44.682372 16.46875 45.367073 16.46875 46.09375 C 16.46875 46.845945 16.793185 47.492035 17.21875 48 L 13.0625 48 C 12.124 48 11.121347 47.75981 10.4375 47.34375 C 9.7536531 46.92769 9.375 46.45528 9.375 45.625 C 9.375 44.889674 9.6320651 44.464058 10.28125 43.875 C 10.930435 43.285942 11.964932 42.66587 13.1875 41.90625 C 14.123219 41.324823 15.405334 40.61583 16.46875 39.84375 C 17.000458 39.45771 17.479668 39.050812 17.875 38.59375 C 18.270332 38.136688 18.625 37.583874 18.625 36.875 L 18.625 29.65625 A 1.0001 1.0001 0 0 0 16.71875 29.1875 C 15.852597 30.794784 14.449905 33.430114 14.21875 33.875 C 13.977009 34.341578 13.563585 34.923236 13.09375 35.375 C 12.959764 35.503833 11.75254 36.518513 10.5625 37.46875 C 9.37246 38.418987 8.1255802 39.411777 7.65625 39.78125 C 7.0986216 40.22018 6.6036471 40.420639 6.25 40.46875 C 5.8963529 40.516861 5.6745407 40.491176 5.40625 40.25 C 4.9203177 39.813178 4.8132522 38.935844 5.5 38.375 C 6.7211765 37.377706 11.4375 33.21875 11.4375 33.21875 A 1.0001 1.0001 0 0 0 11.71875 32.84375 L 14.90625 24.5 A 1.0001 1.0001 0 0 0 14.9375 24.46875 A 1.0001 1.0001 0 0 0 15.0625 24.21875 C 15.351424 23.274248 16.123054 22.567109 17.09375 22.375 A 1.0001 1.0001 0 0 0 17.375 22.25 A 1.0001 1.0001 0 0 0 17.46875 22.21875 C 17.797333 22.093814 21.515241 20.71875 25 20.71875 z" overflow="visible" enable-background="accumulate" font-family="Bitstream Vera Sans"/>
</svg>
