<?xml version="1.0"?>
<svg xmlns="http://www.w3.org/2000/svg" viewBox="0 0 50 50" enable-background="new 0 0 50 50">
<path style="text-indent:0;text-align:start;line-height:normal;text-transform:none;block-progression:tb;-inkscape-font-specification:Bitstream Vera Sans" d="M 25 0 C 22.250421 0 20 2.2504209 20 5 C 20 7.7495791 22.250421 10 25 10 C 27.749579 10 30 7.7495791 30 5 C 30 2.2504209 27.749579 0 25 0 z M 25 2 C 26.668699 2 28 3.3313011 28 5 C 28 6.6686989 26.668699 8 25 8 C 23.331301 8 22 6.6686989 22 5 C 22 3.3313011 23.331301 2 25 2 z M 19.59375 10 C 18.979819 10 18.31926 10.131951 17.6875 10.375 L 17.6875 10.34375 L 17.625 10.375 L 10.875 12.65625 A 1.0001 1.0001 0 0 0 10.84375 12.65625 C 10.224631 12.903898 9.555313 13.390022 9.21875 14.125 L 9.1875 14.15625 C 9.1778 14.17855 9.165364 14.19596 9.15625 14.21875 L 6.4375 19.5 L 6.4375 19.53125 C 5.7344212 20.828543 5.9909256 22.508819 7.1875 23.40625 A 1.0001 1.0001 0 0 0 7.21875 23.40625 C 8.6879298 24.434676 10.810965 23.98198 11.6875 22.375 A 1.0001 1.0001 0 0 0 11.6875 22.34375 L 13.8125 18.21875 L 16.09375 17.3125 L 13.9375 23.875 A 1.0001 1.0001 0 0 0 13.9375 23.9375 C 13.586205 25.167031 13.807738 26.220892 14.15625 27.03125 L 12.53125 30.03125 L 6.5625 29.59375 C 4.7072775 29.451041 3.0501625 30.847887 2.90625 32.71875 C 2.7635406 34.573972 4.1603874 36.262337 6.03125 36.40625 C 6.03125 36.40625 8.137222 36.53748 10.25 36.6875 C 11.306389 36.76251 12.354144 36.849962 13.15625 36.90625 C 13.557303 36.93439 13.884705 36.95227 14.125 36.96875 C 14.245148 36.97695 14.368585 36.99548 14.4375 37 C 14.47196 37.0023 14.47796 36.9987 14.5 37 C 14.52204 37.0013 14.46562 37 14.59375 37 C 15.938194 37 17.108615 36.220271 17.6875 35.0625 L 17.71875 35.03125 L 17.71875 35 L 19.125 31.8125 L 20.625 33.03125 L 17.875 40.3125 L 17.875 40.34375 C 17.476586 41.326929 17.648139 42.334878 18.15625 43.15625 C 14.811893 43.343753 11.378708 43.544867 8.8125 43.6875 C 7.1260944 43.78123 5.7092911 43.85164 4.6875 43.90625 C 4.1766045 43.93355 3.7632358 43.95423 3.46875 43.96875 C 3.1742642 43.983272 2.9458333 44 3 44 C 1.3549901 44 0 45.354991 0 47 C 0 48.645009 1.3549901 50 3 50 L 40 50 C 40.832443 50 41.607391 49.753407 42.25 49.3125 C 42.67559 49.025023 43.025023 48.67559 43.3125 48.25 C 43.317535 48.242545 43.307514 48.22624 43.3125 48.21875 C 43.601003 47.792916 43.799081 47.331661 43.90625 46.8125 C 43.959517 46.552064 44 46.276226 44 46 C 44 45.739077 43.955882 45.496744 43.90625 45.25 C 43.897912 45.208547 43.884652 45.165981 43.875 45.125 C 43.870569 45.105125 43.879726 45.082262 43.875 45.0625 C 43.821078 44.848519 43.775153 44.636403 43.6875 44.4375 C 43.65141 44.352147 43.604223 44.269701 43.5625 44.1875 C 43.544716 44.153589 43.518725 44.127095 43.5 44.09375 C 43.220755 43.579584 42.841919 43.159152 42.375 42.8125 A 1.0001 1.0001 0 0 0 42.375 42.78125 A 1.0001 1.0001 0 0 0 42.375 42.71875 L 47.28125 19.8125 A 1.0001 1.0001 0 0 0 47.3125 19.71875 L 49.71875 17.3125 A 1.0001 1.0001 0 0 0 48.875 15.59375 A 1.0001 1.0001 0 0 0 48.28125 15.90625 L 41.09375 23.09375 A 1.0001 1.0001 0 1 0 42.5 24.5 L 44.6875 22.3125 L 40.5 42.0625 C 40.335432 42.041894 40.170171 42 40 42 C 39.689461 42 39.016594 42.03893 37.90625 42.09375 C 36.795906 42.14857 35.306242 42.218708 33.5625 42.3125 C 30.913969 42.454958 27.456549 42.656654 24.09375 42.84375 C 24.10472 42.813148 24.114885 42.781126 24.125 42.75 C 24.1278 42.7415 24.1223 42.72733 24.125 42.71875 L 24.15625 42.6875 L 27.75 33.15625 L 27.71875 33.15625 C 28.273264 31.769964 27.844307 30.227064 26.6875 29.34375 L 26.6875 29.3125 L 23.25 26.5625 L 24.8125 21.34375 L 25.5625 22.53125 A 1.0001 1.0001 0 0 0 25.5625 22.5625 C 26.104731 23.375846 27.012798 24 28.09375 24 L 34 24 C 35.811111 24 37.305156 22.362187 37 20.53125 A 1.0001 1.0001 0 0 0 36.96875 20.5 C 36.673206 19.022281 35.372917 18 33.90625 18 L 29.875 18 L 27.0625 13.46875 C 25.784387 11.377292 23.469886 10 20.90625 10 L 19.59375 10 z M 19.59375 12 L 20.90625 12 C 22.742614 12 24.421863 13.022708 25.34375 14.53125 L 28.4375 19.53125 A 1.0001 1.0001 0 0 0 29.3125 20 L 33.90625 20 C 34.42472 20 34.878264 20.375488 35 20.875 C 35.094844 21.444063 34.588889 22 34 22 L 28.09375 22 C 27.787948 22 27.499714 21.822037 27.25 21.46875 L 27.21875 21.4375 L 25.34375 18.375 A 1.0001 1.0001 0 0 0 23.53125 18.625 L 21.15625 26.625 A 1.0001 1.0001 0 0 0 21.46875 27.6875 L 25.46875 30.875 A 1.0001 1.0001 0 0 0 25.5 30.90625 C 25.926667 31.22625 26.117052 31.832369 25.875 32.4375 L 22.25 42.0625 A 1.0001 1.0001 0 0 0 22.25 42.125 C 22.076539 42.703205 21.6 43 21 43 C 20.871429 43 20.831333 43.000466 20.8125 43 C 20.810547 42.998198 20.780429 43.000679 20.78125 43 A 1.0001 1.0001 0 0 0 20.59375 42.875 C 19.878047 42.57679 19.452402 41.732985 19.71875 41.09375 A 1.0001 1.0001 0 0 0 19.75 41.0625 L 22.75 33.0625 A 1.0001 1.0001 0 0 0 22.4375 31.9375 L 16.71875 27.28125 C 16.31875 26.88125 15.409769 26.097059 15.875 24.46875 L 15.84375 24.46875 L 18.65625 15.90625 A 1.0001 1.0001 0 0 0 17.34375 14.65625 L 12.75 16.46875 A 1.0001 1.0001 0 0 0 12.21875 16.9375 L 9.9375 21.40625 L 9.90625 21.4375 C 9.5734609 21.9949 8.8930631 22.143894 8.375 21.78125 C 8.0095819 21.481248 7.9189711 20.983352 8.1875 20.5 A 1.0001 1.0001 0 0 0 8.1875 20.46875 L 11 15.0625 A 1.0001 1.0001 0 0 0 11.03125 14.96875 C 11.10658 14.780429 11.230844 14.689666 11.53125 14.5625 C 11.55176 14.5538 11.54005 14.54021 11.5625 14.53125 L 18.3125 12.25 A 1.0001 1.0001 0 0 0 18.375 12.21875 C 18.72559 12.078514 19.227083 12 19.59375 12 z M 15.46875 28.84375 L 17.5 30.5 L 15.90625 34.15625 C 15.90255 34.16365 15.87895 34.14885 15.875 34.15625 L 15.875 34.1875 C 15.63849 34.615211 15.036697 35 14.59375 35 C 14.58139 34.999213 14.57878 35.0011 14.5625 35 C 14.49738 34.9957 14.40036 34.97692 14.28125 34.96875 C 14.04303 34.95242 13.71301 34.93436 13.3125 34.90625 C 12.511481 34.85004 11.431111 34.76249 10.375 34.6875 C 8.2783549 34.538626 6.2181303 34.408438 6.1875 34.40625 C 6.17804 34.405522 6.165669 34.407202 6.15625 34.40625 C 5.4397722 34.33385 4.8497028 33.610113 4.90625 32.875 C 4.962338 32.145863 5.6927225 31.536459 6.4375 31.59375 L 13.03125 32.09375 L 13.6875 32.15625 L 13.96875 31.5625 L 15.46875 28.84375 z M 40 44 C 40.139552 44 40.275245 44.004909 40.40625 44.03125 C 40.415987 44.032869 40.427832 44.029511 40.4375 44.03125 C 40.557992 44.057348 40.670328 44.10987 40.78125 44.15625 C 40.790459 44.159671 40.803377 44.152706 40.8125 44.15625 C 41.271994 44.355853 41.644147 44.728006 41.84375 45.1875 C 41.847373 45.195841 41.840237 45.210348 41.84375 45.21875 C 41.885936 45.332325 41.946117 45.436655 41.96875 45.5625 C 41.99908 45.702531 42 45.849982 42 46 C 42 46.139552 41.995091 46.275245 41.96875 46.40625 C 41.967131 46.415987 41.970489 46.427832 41.96875 46.4375 C 41.942652 46.557992 41.89013 46.670328 41.84375 46.78125 C 41.840329 46.790459 41.847294 46.803377 41.84375 46.8125 C 41.644147 47.271994 41.271994 47.644147 40.8125 47.84375 C 40.566072 47.950798 40.288881 48 40 48 C 38.883586 48 38 47.116414 38 46 C 38 45.023138 38.676716 44.215637 39.59375 44.03125 C 39.724755 44.004909 39.860448 44 40 44 z M 36.46875 44.15625 C 36.176543 44.710678 36 45.333769 36 46 C 36 46.732431 36.214051 47.407407 36.5625 48 L 5.8125 48 C 5.9267611 47.68424 6 47.352992 6 47 C 6 46.588748 5.9027336 46.20211 5.75 45.84375 C 6.6736065 45.795686 7.6341609 45.759941 8.9375 45.6875 C 12.251654 45.503295 16.612189 45.245529 21 45 C 21.172101 45 21.331826 44.995213 21.5 44.96875 C 25.86736 44.72446 30.250894 44.495666 33.65625 44.3125 C 34.784584 44.25181 35.58612 44.19944 36.46875 44.15625 z M 3 46 C 3.5641291 46 4 46.435871 4 47 C 4 47.564129 3.5641291 48 3 48 C 2.7227273 48 2.4619318 47.899432 2.28125 47.71875 C 2.1005682 47.538068 2 47.277273 2 47 C 2 46.722728 2.1005682 46.461932 2.28125 46.28125 C 2.4619318 46.100568 2.7227272 46 3 46 z"/>
</svg>
