<?xml version="1.0"?>
<svg xmlns="http://www.w3.org/2000/svg" viewBox="0 0 50 50" enable-background="new 0 0 50 50">
<path style="text-indent:0;text-align:start;line-height:normal;text-transform:none;block-progression:tb;-inkscape-font-specification:Bitstream Vera Sans" d="M 25 0 C 21.974279 0 19.5 2.4742784 19.5 5.5 C 19.5 7.3514656 20.431407 9.0020478 21.84375 10 L 13.375 10 L 12.90625 9.0625 L 12.90625 9.03125 L 12.875 9.03125 C 12.255724 7.8367629 10.882925 7.1128903 9.53125 7.5625 L 9.53125 7.53125 C 9.507251 7.5378 9.492379 7.555378 9.46875 7.5625 C 9.45956 7.56527 9.446633 7.55964 9.4375 7.5625 L 9.4375 7.59375 C 8.3249 7.948877 7.6621813 8.9300227 7.5625 10 L 0 10 L 0 12 L 8.03125 12 L 11.8125 19.84375 C 12.351014 20.920778 13.712724 21.299888 14.75 20.78125 L 19.09375 18.53125 L 19.09375 26 L 17.125 36.9375 C 16.994177 37.722439 17.142 38.524409 17.53125 39.1875 L 17.53125 39.21875 L 22.53125 48.1875 A 1.0001 1.0001 0 0 0 22.5625 48.21875 C 23.217331 49.26648 24.32338 50 25.59375 50 C 26.160417 50 26.730743 49.853378 27.25 49.59375 A 1.0001 1.0001 0 0 0 27.3125 49.5625 C 28.966021 48.597946 29.516076 46.500902 28.6875 44.84375 A 1.0001 1.0001 0 0 0 28.65625 44.8125 L 27.75 43.25 L 33 38 C 33.927924 37.072076 34.23398 35.708636 33.84375 34.5 L 33.84375 34.46875 L 31 25.875 L 31 18.4375 L 35.34375 20.6875 C 36.381026 21.206138 37.742736 20.827028 38.28125 19.75 A 1.0001 1.0001 0 0 0 38.3125 19.71875 L 42.03125 12 L 50 12 L 50 10 L 42.5625 10 C 42.490165 8.8983503 41.780782 7.8776703 40.65625 7.46875 A 1.0001 1.0001 0 0 0 40.625 7.4375 C 39.219036 6.9688452 37.812543 7.7499149 37.21875 8.9375 L 36.6875 10 L 28.15625 10 C 29.568593 9.0020478 30.5 7.3514656 30.5 5.5 C 30.5 2.4742784 28.025721 0 25 0 z M 25 2 C 26.944841 2 28.5 3.5551588 28.5 5.5 C 28.5 7.4448412 26.944841 9 25 9 C 23.055159 9 21.5 7.4448412 21.5 5.5 C 21.5 3.5551588 23.055159 2 25 2 z M 39.6875 9.3125 C 39.780681 9.3040017 39.870241 9.3109137 39.96875 9.34375 C 40.32966 9.47499 40.51103 9.716258 40.5625 10 L 38.90625 10 L 39 9.84375 C 39.154655 9.5344388 39.407958 9.3379948 39.6875 9.3125 z M 10.15625 9.4375 C 10.357683 9.361963 10.917357 9.5847136 11.09375 9.9375 A 1.0001 1.0001 0 0 0 11.09375 9.96875 L 11.125 10 L 9.5625 10 C 9.641256 9.7507221 9.8102194 9.5375538 10.0625 9.46875 A 1.0001 1.0001 0 0 0 10.15625 9.4375 z M 10.25 12 L 12.125 12 L 13.8125 15.25 A 1.0001 1.0001 0 0 0 15.3125 15.59375 L 19.9375 12 L 30.0625 12 L 34.8125 15.5 A 1.0001 1.0001 0 0 0 36.28125 15.15625 L 37.90625 12 L 39.8125 12 L 36.5 18.84375 C 36.43851 18.966722 36.41272 18.987612 36.25 18.90625 L 30.46875 15.90625 A 1.0001 1.0001 0 0 0 29 16.8125 L 29 26 A 1.0001 1.0001 0 0 0 29.0625 26.3125 L 31.9375 35.125 C 32.132091 35.708772 32.058048 36.129452 31.59375 36.59375 L 26.75 41.4375 L 25.375 39 L 28.46875 35.46875 A 1.0001 1.0001 0 0 0 28.59375 34.375 L 25.90625 28.5625 A 1.0001 1.0001 0 0 0 24.03125 28.78125 L 22.125 36.78125 A 1.0001 1.0001 0 0 0 22.21875 37.5 L 26.90625 45.75 C 27.27088 46.47926 27.026901 47.368161 26.3125 47.8125 C 26.29919 47.8208 26.2949 47.83579 26.28125 47.84375 C 26.031781 47.958077 25.806495 48 25.59375 48 C 25.06412 48 24.595169 47.70852 24.25 47.15625 L 19.28125 38.21875 A 1.0001 1.0001 0 0 0 19.25 38.1875 C 19.057339 37.866399 19.035278 37.659211 19.09375 37.28125 C 19.09575 37.26858 19.09155 37.26312 19.09375 37.25 L 21.09375 26.1875 A 1.0001 1.0001 0 0 0 21.09375 26 L 21.09375 16.90625 A 1.0001 1.0001 0 0 0 19.625 16 L 13.84375 19 C 13.681026 19.08136 13.655236 19.06047 13.59375 18.9375 L 10.25 12 z M 14.40625 12 L 16.6875 12 L 15.0625 13.25 L 14.40625 12 z M 33.4375 12 L 35.65625 12 L 35.03125 13.1875 L 33.4375 12 z M 25.3125 32.03125 L 26.5 34.625 L 24.3125 37.125 L 24.15625 36.84375 L 25.3125 32.03125 z" overflow="visible" enable-background="accumulate" font-family="Bitstream Vera Sans"/>
</svg>
